<svg fill="#fff" id="Layer_1" enable-background="new 0 0 512 512" height="512" viewBox="0 0 512 512" width="512" xmlns="http://www.w3.org/2000/svg"><path d="m496 0h-384c-8.836 0-16 7.163-16 16v80h-80c-8.836 0-16 7.163-16 16v336c0 35.29 28.71 64 64 64h384c35.35 0 64-28.599 64-64v-432c0-8.837-7.163-16-16-16zm-432 480c-17.645 0-32-14.355-32-32v-320h352c0 343.416-.041 320.378.074 322.925.472 10.466 3.483 20.393 8.515 29.075zm416-32c0 17.641-14.266 32-32 32-17.645 0-32-14.355-32-32v-336c0-8.837-7.163-16-16-16h-272v-64h352z"/><path d="m344 152h-272c-8.836 0-16 7.163-16 16v104c0 8.837 7.164 16 16 16h272c8.837 0 16-7.163 16-16v-104c0-8.837-7.163-16-16-16zm-16 104h-240v-72h240z"/><path d="m184 312h-112c-8.836 0-16 7.163-16 16v112c0 8.837 7.164 16 16 16h112c8.836 0 16-7.163 16-16v-112c0-8.837-7.164-16-16-16zm-16 112h-80v-80h80z"/><path d="m344 312h-104c-8.836 0-16 7.163-16 16s7.164 16 16 16h104c8.837 0 16-7.163 16-16s-7.163-16-16-16z"/><path d="m344 368h-104c-8.836 0-16 7.163-16 16s7.164 16 16 16h104c8.837 0 16-7.163 16-16s-7.163-16-16-16z"/><path d="m344 424h-104c-8.836 0-16 7.163-16 16s7.164 16 16 16h104c8.837 0 16-7.163 16-16s-7.163-16-16-16z"/></svg>